# xmcd
#
# Track frame offsets:
#       150
#       13601
#       31871
#       57901
#       68031
#       80733
#       108660
#       120092
#       138220
#       154231
#       166493
#       194483
#       220553
#       228095
#       252637
#
# Disc length: 3713 seconds
#
# Revision: 1
# Processed by: cddbd v1.4PL0 Copyright (c) Steve Scherf et al.
# Submitted via: MusiCat 1.1
#
DISCID=c50e7f0f
DTITLE=Barbara Morrison - Thinking of You Joe
DYEAR=1900
DGENRE=
TTITLE0=Smack Dab in the Middle
TTITLE1=Going to Chicago
TTITLE2=When Did You Leave Heaven?
TTITLE3=Love You Madly
TTITLE4=Gee, Baby, Ain't I Good to You?
TTITLE5=Gotta Git Ta Gittin'
TTITLE6=I'm Beginning to See the Light
TTITLE7=Lullaby of Birdland
TTITLE8=You've Changed
TTITLE9=Corner Pocket/Until I Met You
TTITLE10=Down by the Riverside
TTITLE11=Come Sunday
TTITLE12=thinking of You, Joe
TTITLE13=Little Green Apples
TTITLE14=come Sunday (reprise)
EXTD=\n\n
EXTT0=
EXTT1=
EXTT2=
EXTT3=
EXTT4=
EXTT5=
EXTT6=
EXTT7=
EXTT8=
EXTT9=
EXTT10=
EXTT11=
EXTT12=
EXTT13=
EXTT14=
PLAYORDER=
